<svg width="36" height="25" viewBox="0 0 36 25" fill="none" xmlns="http://www.w3.org/2000/svg">
<rect opacity="0.12" y="0.71936" width="35.7568" height="23.3794" rx="8.25156" fill="white"/>
<path d="M5.50145 8.28336H15.1283" stroke="white" stroke-width="1.2" stroke-linecap="round"/>
<path d="M5.50145 15.8472H15.1283" stroke="white" stroke-width="1.2" stroke-linecap="round"/>
<path d="M22.004 15.8472H31.6308" stroke="white" stroke-width="1.2" stroke-linecap="round"/>
<path d="M22.004 7.5957H31.6308" stroke="white" stroke-width="1.2" stroke-linecap="round"/>
<path d="M15.3839 7.92469L17.5306 4.91933C18.0542 4.18627 19.1295 4.14621 19.7062 4.83827L21.6853 7.21318C21.8913 7.46034 22.0041 7.77188 22.0041 8.0936V15.4528C22.0041 15.7106 21.9317 15.9631 21.795 16.1817L19.6559 19.6043C19.1367 20.4351 17.94 20.472 17.3706 19.6748L15.3839 16.8935C15.2173 16.6603 15.1278 16.3808 15.1278 16.0942V8.72404C15.1278 8.43741 15.2173 8.15793 15.3839 7.92469Z" stroke="white" stroke-width="1.2"/>
</svg>
