<svg width="20" height="24" viewBox="0 0 20 24" fill="none" xmlns="http://www.w3.org/2000/svg">
<path d="M19 9.6087C19 13.448 15.7396 18.5714 12.3782 21.4089C10.9916 22.5794 9.0084 22.5794 7.62177 21.4089C4.26037 18.5714 1 13.448 1 9.6087C1 4.85424 5.02944 1 10 1C14.9706 1 19 4.85424 19 9.6087Z" stroke="#333333" stroke-width="1.7"/>
<path d="M12.6115 8.5625C12.6115 9.98596 11.4479 11.15 9.99999 11.15C8.55208 11.15 7.38845 9.98596 7.38845 8.5625C7.38845 7.13904 8.55208 5.975 9.99999 5.975C11.4479 5.975 12.6115 7.13904 12.6115 8.5625Z" stroke="#333333" stroke-width="1.7"/>
</svg>
