<svg width="20" height="23" viewBox="0 0 20 23" fill="none" xmlns="http://www.w3.org/2000/svg">
<path opacity="0.5" fill-rule="evenodd" clip-rule="evenodd" d="M1.60002 9.60872C1.60002 5.20664 5.31145 1.60002 9.93752 1.60002C14.5636 1.60002 18.275 5.20664 18.275 9.60872C18.275 11.3741 17.525 13.501 16.329 15.5678C15.1387 17.6246 13.5436 19.5578 11.9352 20.9308C10.7708 21.9249 9.10429 21.9249 7.93985 20.9308C6.3314 19.5578 4.73637 17.6246 3.54609 15.5678C2.35008 13.501 1.60002 11.3741 1.60002 9.60872ZM9.93752 0.400024C4.6915 0.400024 0.400024 4.5019 0.400024 9.60872C0.400024 11.6728 1.26059 14.0142 2.50746 16.1688C3.76006 18.3334 5.44016 20.3747 7.16073 21.8435C8.77394 23.2207 11.1011 23.2207 12.7143 21.8435C14.4349 20.3747 16.115 18.3334 17.3676 16.1688C18.6145 14.0142 19.475 11.6728 19.475 9.60872C19.475 4.5019 15.1835 0.400024 9.93752 0.400024ZM12.175 8.56252C12.175 9.79826 11.1733 10.8 9.93752 10.8C8.70179 10.8 7.70002 9.79826 7.70002 8.56252C7.70002 7.32679 8.70179 6.32502 9.93752 6.32502C11.1733 6.32502 12.175 7.32679 12.175 8.56252ZM13.375 8.56252C13.375 10.461 11.836 12 9.93752 12C8.03904 12 6.50002 10.461 6.50002 8.56252C6.50002 6.66405 8.03904 5.12502 9.93752 5.12502C11.836 5.12502 13.375 6.66405 13.375 8.56252Z" fill="url(#paint0_linear_1_1054)"/>
<defs>
<linearGradient id="paint0_linear_1_1054" x1="-4.5" y1="-40" x2="32.5" y2="68.5" gradientUnits="userSpaceOnUse">
<stop stop-color="#37FFA0"/>
<stop offset="1" stop-color="#4FA3FB"/>
</linearGradient>
</defs>
</svg>
