<svg width="14" height="20" viewBox="0 0 14 20" fill="none" xmlns="http://www.w3.org/2000/svg">
<path d="M3.94831 6.3065C4.00373 5.16647 4.12111 4.08868 4.35911 3.70212C4.92642 2.77502 5.85888 2.23122 6.9185 2.20828C6.95762 2.20828 6.99349 2.20828 7.02935 2.20828C8.10527 2.21811 9.04752 2.75209 9.61482 3.67591C9.87239 4.09196 9.99302 5.15664 10.0484 6.30978C10.8994 6.66358 11.6754 7.15825 12.3372 7.7643C12.3535 6.52599 12.3698 5.06492 12.3503 4.77336C12.1938 2.31311 10.0811 0.22633 7.54449 0.0232207C7.38473 0.0101169 7.22497 0.00356503 7.07174 0.000289076C5.68934 -0.0128147 4.46671 0.419611 3.44295 1.29102C2.42898 2.15259 1.7606 3.42694 1.65953 4.69473C1.63671 4.96336 1.63671 6.51617 1.63997 7.78068C2.30835 7.1648 3.08757 6.66358 3.94831 6.3065Z" fill="#333333"/>
<path fill-rule="evenodd" clip-rule="evenodd" d="M14 13.2253C14 16.9669 10.866 20 7 20C3.13401 20 0 16.9669 0 13.2253C0 9.48378 3.13401 6.45065 7 6.45065C10.866 6.45065 14 9.48378 14 13.2253ZM8.10523 12.3703C8.18999 12.2491 8.2552 12.1541 8.27476 12.0591C8.36605 11.6299 8.28129 11.2303 8.03676 10.9387C7.80527 10.6635 7.46293 10.5128 7.06843 10.5128C6.98366 10.5128 6.89563 10.5227 6.8076 10.5358C6.45874 10.5947 6.16205 10.7749 5.97621 11.0468C5.77407 11.3417 5.71212 11.7086 5.80015 12.0886C5.80993 12.1246 5.8784 12.2262 5.92404 12.2917C6.04794 12.4719 6.20117 12.6979 6.26638 12.9993C6.35618 13.4118 6.31978 13.837 6.28443 14.2499L6.28268 14.2704C6.2403 14.7257 6.20443 15.1549 6.32833 15.4989C6.47504 15.9018 6.89563 15.9346 7.01952 15.9346C7.30318 15.9346 7.64225 15.8002 7.74985 15.4989C7.85092 15.2171 7.81831 14.7159 7.78571 14.2769C7.74985 13.7954 7.7205 13.3433 7.81505 12.9436C7.87048 12.7045 8.00089 12.5177 8.10523 12.3703Z" fill="#333333"/>
</svg>
