<svg width="26" height="30" viewBox="0 0 26 30" fill="none" xmlns="http://www.w3.org/2000/svg">
<path fill-rule="evenodd" clip-rule="evenodd" d="M15.39 28.2471C20.1335 24.7123 25 17.5353 25 12.2342C25 6.02974 19.6274 1 13 1C6.37258 1 1 6.02974 1 12.2342C1 17.5353 5.86648 24.7123 10.61 28.2471C12.0371 29.3105 13.9629 29.3105 15.39 28.2471ZM13 15.3549C15.549 15.3549 17.6154 13.3465 17.6154 10.869C17.6154 8.39148 15.549 6.38308 13 6.38308C10.451 6.38308 8.38459 8.39148 8.38459 10.869C8.38459 13.3465 10.451 15.3549 13 15.3549Z" fill="#D9D9D9"/>
<path fill-rule="evenodd" clip-rule="evenodd" d="M15.39 28.2471C20.1335 24.7123 25 17.5353 25 12.2342C25 6.02974 19.6274 1 13 1C6.37258 1 1 6.02974 1 12.2342C1 17.5353 5.86648 24.7123 10.61 28.2471C12.0371 29.3105 13.9629 29.3105 15.39 28.2471ZM13 15.3549C15.549 15.3549 17.6154 13.3465 17.6154 10.869C17.6154 8.39148 15.549 6.38308 13 6.38308C10.451 6.38308 8.38459 8.39148 8.38459 10.869C8.38459 13.3465 10.451 15.3549 13 15.3549Z" fill="url(#paint0_linear_1_164)"/>
<path d="M15.39 28.2471L15.8979 28.9287L15.39 28.2471ZM10.61 28.2471L10.1021 28.9287L10.61 28.2471ZM24.15 12.2342C24.15 14.6564 23.0243 17.6151 21.2528 20.4529C19.4909 23.2753 17.1572 25.8702 14.8821 27.5655L15.8979 28.9287C18.3663 27.0893 20.8376 24.3282 22.6949 21.3531C24.5424 18.3935 25.85 15.1131 25.85 12.2342H24.15ZM13 1.85C19.2116 1.85 24.15 6.55111 24.15 12.2342H25.85C25.85 5.50837 20.0432 0.15 13 0.15V1.85ZM1.85 12.2342C1.85 6.55111 6.78836 1.85 13 1.85V0.15C5.95681 0.15 0.15 5.50837 0.15 12.2342H1.85ZM11.1179 27.5655C8.84282 25.8702 6.50915 23.2753 4.74722 20.4529C2.97568 17.6151 1.85 14.6564 1.85 12.2342H0.15C0.15 15.1131 1.45757 18.3935 3.30515 21.3531C5.16235 24.3282 7.6337 27.0893 10.1021 28.9287L11.1179 27.5655ZM14.8821 27.5655C13.7564 28.4044 12.2436 28.4044 11.1179 27.5655L10.1021 28.9287C11.8306 30.2167 14.1694 30.2167 15.8979 28.9287L14.8821 27.5655ZM16.7654 10.869C16.7654 12.8544 15.1025 14.5049 13 14.5049V16.2049C15.9955 16.2049 18.4654 13.8385 18.4654 10.869H16.7654ZM13 7.23308C15.1025 7.23308 16.7654 8.88356 16.7654 10.869H18.4654C18.4654 7.8994 15.9955 5.53308 13 5.53308V7.23308ZM9.23459 10.869C9.23459 8.88356 10.8974 7.23308 13 7.23308V5.53308C10.0045 5.53308 7.53459 7.8994 7.53459 10.869H9.23459ZM13 14.5049C10.8974 14.5049 9.23459 12.8544 9.23459 10.869H7.53459C7.53459 13.8385 10.0045 16.2049 13 16.2049V14.5049Z" fill="url(#paint1_linear_1_164)"/>
<defs>
<linearGradient id="paint0_linear_1_164" x1="13" y1="1" x2="13" y2="29.9843" gradientUnits="userSpaceOnUse">
<stop stop-color="#38FEA0"/>
<stop offset="1" stop-color="#4EA8F7"/>
</linearGradient>
<linearGradient id="paint1_linear_1_164" x1="13" y1="1" x2="13" y2="29.9843" gradientUnits="userSpaceOnUse">
<stop stop-color="#38FEA0"/>
<stop offset="1" stop-color="#4EA8F7"/>
</linearGradient>
</defs>
</svg>
