<svg width="14" height="14" viewBox="0 0 14 14" fill="none" xmlns="http://www.w3.org/2000/svg">
<path d="M13.2867 0.713608C12.8297 0.256619 12.21 -6.4506e-05 11.5638 1.00679e-05C10.9172 -0.00185428 10.2968 0.255277 9.84113 0.714018L1.45887 9.09553C1.38933 9.1656 1.33687 9.25076 1.30551 9.34435L0.0327891 13.1625C-0.0782892 13.496 0.101994 13.8563 0.435453 13.9674C0.500146 13.9889 0.567897 13.9999 0.636058 14C0.704368 13.9999 0.772268 13.9889 0.837147 13.9676L4.65535 12.6948C4.74913 12.6635 4.83433 12.6108 4.90417 12.5408L13.2864 4.15866C14.2378 3.2074 14.2379 1.66499 13.2867 0.713608ZM12.3866 3.25945L4.11379 11.5322L1.64214 12.3575L2.46495 9.88907L10.7409 1.61636C11.1959 1.16228 11.9329 1.16303 12.387 1.618C12.6038 1.83535 12.7261 2.12958 12.727 2.43664C12.7278 2.74534 12.6052 3.04155 12.3866 3.25945Z" fill="white"/>
</svg>
