<svg width="14" height="20" viewBox="0 0 14 20" fill="none" xmlns="http://www.w3.org/2000/svg">
<g opacity="0.5">
<path d="M5.06661 4.75408C5.80998 3.69538 6.39684 2.8599 7.22824 2.48043C8.23243 2.02442 9.31813 2.06907 10.2147 2.60479C10.2473 2.62393 10.2767 2.64306 10.3093 2.66219C11.1994 3.233 11.6754 4.15777 11.6232 5.20052C11.5906 5.82554 11.307 6.40272 10.8733 7.05644C11.5352 7.41678 12.1383 7.86641 12.6567 8.38619C12.9111 8.04498 13.1556 7.70696 13.2729 7.51882C14.5478 5.44288 13.987 2.65263 11.9916 1.16024C11.8677 1.06777 11.7373 0.978477 11.6102 0.895567C10.4658 0.16213 9.20402 -0.121678 7.85097 0.0473315C6.51096 0.216341 5.22637 0.898756 4.41454 1.87455C4.12763 2.21894 3.27994 3.4626 3.08105 3.73684L4.94272 4.93266C4.98185 4.87207 5.02423 4.81148 5.06661 4.75408Z" fill="#969696"/>
<path fill-rule="evenodd" clip-rule="evenodd" d="M14 13.4054C14 17.0475 10.866 20 7 20C3.13401 20 0 17.0475 0 13.4054C0 9.76338 3.13401 6.81089 7 6.81089C10.866 6.81089 14 9.76338 14 13.4054ZM8.18683 12.5732C8.2716 12.4552 8.3368 12.3627 8.35637 12.2702C8.44766 11.8525 8.36289 11.4634 8.11836 11.1796C7.88687 10.9118 7.54453 10.7651 7.15003 10.7651C7.06526 10.7651 6.97723 10.7747 6.8892 10.7874C6.54034 10.8448 6.24365 11.0202 6.05781 11.2849C5.85567 11.5719 5.79372 11.929 5.88175 12.2989C5.89153 12.334 5.96 12.4329 6.00564 12.4966C6.12954 12.672 6.28277 12.8921 6.34798 13.1854C6.43779 13.587 6.40139 14.0008 6.36604 14.4028L6.36428 14.4227C6.3219 14.866 6.28603 15.2837 6.40993 15.6185C6.55664 16.0108 6.97723 16.0426 7.10113 16.0426C7.38478 16.0426 7.72386 15.9119 7.83145 15.6185C7.93252 15.3443 7.89991 14.8564 7.86731 14.4291C7.83145 13.9603 7.8021 13.5203 7.89666 13.1312C7.95208 12.8984 8.08249 12.7167 8.18683 12.5732Z" fill="#969696"/>
</g>
</svg>
